<?xml version="1.0" encoding="iso-8859-1"?>
<!-- Generator: Adobe Illustrator 19.0.0, SVG Export Plug-In . SVG Version: 6.00 Build 0)  -->
<svg version="1.1" id="Capa_1" xmlns="http://www.w3.org/2000/svg" xmlns:xlink="http://www.w3.org/1999/xlink" x="0px" y="0px"
	 viewBox="0 0 512 512" style="enable-background:new 0 0 512 512;" xml:space="preserve">
<g>
	<g>
		<g transform="matrix(1.25 0 0 -1.25 0 45)">
			<path style="fill:#138808;" d="M0-271.2c0-25.134,20.378-45.511,45.511-45.511h318.578c25.134,0,45.511,20.378,45.511,45.511
				v45.511H0V-271.2z"/>
			<path style="fill:#EEEEEE;" d="M0-225.689h409.6v113.778H0V-225.689z"/>
			<path style="fill:#FF9933;" d="M409.6-111.911V-66.4c0,25.134-20.378,45.511-45.511,45.511H45.511C20.378-20.889,0-41.266,0-66.4
				v-45.511H409.6z"/>
			<path style="fill:#000080;" d="M250.311-168.8c0,25.145-20.378,45.522-45.522,45.522c-25.134,0-45.511-20.378-45.511-45.522
				c0-25.134,20.378-45.511,45.511-45.511C229.934-214.311,250.311-193.934,250.311-168.8"/>
			<path style="fill:#EEEEEE;" d="M238.933-168.8c0,18.853-15.292,34.145-34.145,34.145s-34.133-15.292-34.133-34.145
				s15.28-34.133,34.133-34.133S238.933-187.653,238.933-168.8"/>
			<g>
				<g style="opacity:0.6;">
					<path style="fill:#000080;" d="M204.8-134.667l1.661-25.759l11.401,23.154l-8.317-24.428l19.388,17.044L211.9-164.055
						l24.428,8.317l-23.154-11.401l25.759-1.661l-25.759-1.661l23.154-11.389l-24.428,8.306l17.033-19.388L209.545-175.9
						l8.317-24.428l-11.401,23.154l-1.661-25.759l-1.661,25.759l-11.401-23.154l8.317,24.428l-19.399-17.033l17.044,19.388
						l-24.428-8.306l23.154,11.389l-25.759,1.661l25.759,1.661l-23.154,11.401l24.428-8.317l-17.044,19.399l19.399-17.044
						l-8.317,24.428l11.401-23.154L204.8-134.667z"/>
				</g>
				<path style="fill:#000080;" d="M193.422-168.8c0,6.281,5.097,11.378,11.378,11.378s11.378-5.097,11.378-11.378
					s-5.097-11.378-11.378-11.378S193.422-175.081,193.422-168.8"/>
			</g>
		</g>
	</g>
</g>
<g>
</g>
<g>
</g>
<g>
</g>
<g>
</g>
<g>
</g>
<g>
</g>
<g>
</g>
<g>
</g>
<g>
</g>
<g>
</g>
<g>
</g>
<g>
</g>
<g>
</g>
<g>
</g>
<g>
</g>
</svg>
